<svg  version="1.1" id="SVGs" xmlns="&ns_svg;" xmlns:xlink="&ns_xlink;" width="288" height="29.193" viewBox="0 0 288 29.193"
	 overflow="visible" enable-background="new 0 0 288 29.193" xml:space="preserve">
<path d="M21.539,7.148c-1.193,0.359-2.38-0.087-2.655-0.997c-0.641-2.118-3.41-3.157-6.192-2.324C9.91,4.666,8.174,7.059,8.805,9.18
	c0.273,0.908-0.473,1.935-1.667,2.295c-0.399,0.121-0.785,0.121-1.149,0.072L5.983,11.57C1.995,11.57,0,7.878,0,6.549
	c0.769,0.769,2.64,2.007,4.256,2.556C4.08,5.554,7.126,1.911,11.7,0.537c5.171-1.552,10.316,0.379,11.503,4.317
	C23.476,5.764,22.731,6.791,21.539,7.148z M5.275,24.763c1.193,0.359,2.38-0.087,2.655-0.997c0.641-2.118,3.41-3.157,6.192-2.324
	c2.782,0.839,4.517,3.232,3.887,5.353c-0.273,0.908,0.472,1.935,1.667,2.295c0.399,0.121,0.785,0.121,1.149,0.072l0.006,0.022
	c3.988,0,5.983-3.692,5.983-5.021c-0.769,0.769-2.64,2.007-4.256,2.556c0.176-3.551-2.87-7.194-7.444-8.568
	C9.942,16.599,4.796,18.53,3.61,22.469C3.337,23.378,4.083,24.405,5.275,24.763z M288,14.593h-0.007V14.6H288V14.593z"/>
</svg>
