<?xml version="1.0" encoding="utf-8"?>
<!-- Generator: Adobe Illustrator 12.0.1, SVG Export Plug-In . SVG Version: 6.00 Build 51448)  -->
<!DOCTYPE svg PUBLIC "-//W3C//DTD SVG 1.1//EN" "http://www.w3.org/Graphics/SVG/1.1/DTD/svg11.dtd" [
	<!ENTITY ns_svg "http://www.w3.org/2000/svg">
	<!ENTITY ns_xlink "http://www.w3.org/1999/xlink">
]>
<svg  version="1.1" id="SVGs" xmlns="&ns_svg;" xmlns:xlink="&ns_xlink;" width="288" height="260.118" viewBox="0 0 288 260.118"
	 overflow="visible" enable-background="new 0 0 288 260.118" xml:space="preserve">
<path fill="#E5C6A8" d="M254.412,41.549C254.412,18.61,235.819,0,212.879,0c-14.331,0-26.96,7.251-34.435,18.301
	c-11.462-5.722-24.384-8.936-38.044-8.936c-11.977,0-23.404,2.474-33.748,6.942C99.057,6.392,87.114,0,73.66,0
	C50.72,0,32.127,18.61,32.127,41.549c0,16.806,9.984,31.274,24.332,37.804c-0.91,4.984-1.392,10.122-1.392,15.362
	c0,47.134,38.199,85.351,85.333,85.351c47.134,0,85.35-38.217,85.35-85.351c0-4.536-0.361-9.004-1.031-13.351
	C241.885,76.276,254.412,60.365,254.412,41.549z M59.964,66.156c-6.065-4.982-9.932-12.544-9.932-21.015
	c0-15.035,12.2-27.22,27.218-27.22c6.118,0,11.771,2.029,16.324,5.43C78.162,33.491,66.236,48.474,59.964,66.156z M221.9,69.267
	c-5.55-17.769-16.754-33.061-31.514-43.715c4.897-4.725,11.564-7.63,18.902-7.63c15.019,0,27.218,12.185,27.218,27.22
	C236.506,55.623,230.578,64.713,221.9,69.267z M26.828,95.486c12.029,0,15.179,7.732,8.878,14.034
	c11.742,0,10.883,10.882,4.296,17.469c0,0,13.174,0,9.165,11.456c-4.009,11.456-38.376,12.079-38.376-20.048
	C10.79,107.515,14.8,95.486,26.828,95.486z M247.853,143.122c-10.063-6.789,0.5-14.663,0.5-14.663
	c-9.218-1.343-16.41-9.555-6.997-16.573c-8.819-1.285-10.914-9.367-1.271-16.558c9.644-7.188,20.048,0.057,26.552,8.781
	C285.839,129.867,257.915,149.91,247.853,143.122z M71.515,259.676c22.912,3.437,38.375-12.955,24.63-56.132
	c-13.746-43.176-54.11-70.109-86.49-32.076C-26.431,213.854,48.604,256.239,71.515,259.676z M49.786,201.31
	c-4.013,3.755-10.844,2.975-15.256-1.737c-4.413-4.716-4.735-11.583-0.722-15.341c4.012-3.754,10.845-2.977,15.256,1.736
	C53.477,190.684,53.799,197.552,49.786,201.31z M65.4,192.326c-4.672,1.173-9.563-2.371-10.926-7.915
	c-1.36-5.546,1.323-10.994,5.997-12.168c4.671-1.173,9.563,2.373,10.925,7.916C72.755,185.708,70.072,191.153,65.4,192.326z
	 M62.22,216.301c-3-22.4,17.122-26.019,22.58-12.163c5.459,13.856,5.304,36.482,1.509,40.131c-3.794,3.65-30.871-4.092-37.1-7.025
	C38.423,232.163,35.788,212.851,62.22,216.301z M19.355,210.696c1.411-4.648,6.94-7.063,12.345-5.391
	c5.407,1.676,8.646,6.804,7.234,11.455c-1.412,4.65-6.938,7.063-12.344,5.392C21.183,220.478,17.943,215.351,19.355,210.696z
	 M278.345,171.468c-32.38-38.033-72.742-11.1-86.488,32.076c-13.746,43.177,1.718,59.568,24.629,56.132
	C239.396,256.239,314.431,213.854,278.345,171.468z M238.936,185.968c4.411-4.713,11.244-5.49,15.256-1.736
	c4.014,3.758,3.691,10.625-0.722,15.341c-4.411,4.712-11.242,5.492-15.255,1.737C234.203,197.552,234.525,190.684,238.936,185.968z
	 M216.605,180.159c1.362-5.543,6.254-9.089,10.925-7.916c4.673,1.174,7.356,6.622,5.997,12.168
	c-1.363,5.544-6.254,9.088-10.926,7.915C217.93,191.153,215.247,185.708,216.605,180.159z M238.79,237.243
	c-6.227,2.934-33.304,10.676-37.098,7.025c-3.795-3.648-3.949-26.274,1.509-40.131c5.459-13.855,25.581-10.237,22.58,12.163
	C252.211,212.851,249.577,232.163,238.79,237.243z M261.41,222.152c-5.405,1.671-10.933-0.741-12.345-5.392
	c-1.411-4.651,1.828-9.779,7.234-11.455c5.404-1.672,10.934,0.742,12.345,5.391C270.057,215.351,266.816,220.478,261.41,222.152z"/>
</svg>
