<?xml version="1.0" encoding="utf-8"?>
<!-- Generator: Adobe Illustrator 12.0.1, SVG Export Plug-In . SVG Version: 6.00 Build 51448)  -->
<!DOCTYPE svg PUBLIC "-//W3C//DTD SVG 1.1//EN" "http://www.w3.org/Graphics/SVG/1.1/DTD/svg11.dtd" [
	<!ENTITY ns_svg "http://www.w3.org/2000/svg">
	<!ENTITY ns_xlink "http://www.w3.org/1999/xlink">
]>
<svg  version="1.1" id="SVGs" xmlns="&ns_svg;" xmlns:xlink="&ns_xlink;" width="288" height="125.34" viewBox="0 0 288 125.34"
	 overflow="visible" enable-background="new 0 0 288 125.34" xml:space="preserve">
<path fill="#FCDFEB" d="M189.281,41.141c-0.376,2.52-1.853,4.744-4.029,6.069c-2.177,1.325-4.831,1.616-7.242,0.794
	c-15.827-5.4-32.894-5.387-48.462-0.328c-2.422,0.788-5.061,0.462-7.22-0.893s-3.601-3.587-3.947-6.112
	c-1.221-8.845,0.891-18.23,6.576-25.998c5.815-7.959,14.378-12.852,23.407-14.244c9.026-1.413,18.677,0.65,26.638,6.478
	c5.544,4.05,9.619,9.456,12.03,15.403C189.447,28.26,190.231,34.762,189.281,41.141z M171.447,63.915
	c-5.962-4.46-13.436-7.142-21.466-7.138c-9.857-0.004-18.86,4.021-25.315,10.486c-6.468,6.452-10.499,15.46-10.495,25.325
	c-0.002,5.546,1.272,10.847,3.545,15.551c2.274,4.706,5.537,8.826,9.524,12.102c2.153,1.769,5.07,2.387,7.755,1.64
	c2.684-0.747,4.865-2.78,5.796-5.405c5.632-15.886,16.365-29.378,30.234-38.498c2.329-1.532,3.783-4.137,3.866-6.922
	C174.977,68.271,173.68,65.584,171.447,63.915z M93.135,13.776c-14.892,0-22.338,6.301,0,18.901
	C115.473,20.077,108.027,13.776,93.135,13.776z M216.485,124.897c-22.911,3.437-38.375-12.955-24.629-56.131
	c13.746-43.177,54.109-70.11,86.489-32.076C314.431,79.076,239.396,121.461,216.485,124.897z M9.655,36.69
	c32.38-38.034,72.744-11.101,86.49,32.076c13.746,43.176-1.718,59.567-24.629,56.131C48.604,121.461-26.431,79.076,9.655,36.69z"/>
</svg>
